<svg width="16" height="14" viewBox="0 0 16 14" fill="none" xmlns="http://www.w3.org/2000/svg">
<path d="M8 10.0001C8.27614 10.0001 8.5 9.77622 8.5 9.50009C8.5 9.22395 8.27614 9.00009 8 9.00009C7.72386 9.00009 7.5 9.22395 7.5 9.50009C7.5 9.77622 7.72386 10.0001 8 10.0001Z" fill="white"/>
<path d="M14 8.49998V6.50001H13V7.49999H3V6.50001H2V8.49998H5.5V10.706L3.5 11.8184V13.9999H4.5V12.4059L6.13 11.4999H9.8705L11.5 12.4064V13.9999H12.5V11.8184L10.5 10.706V8.49998H14ZM9.5 10.5H6.5V8.49998H9.5V10.5ZM0 4.50003H5V5.50002H0V4.50003ZM11 4.50003H16V5.50002H11V4.50003ZM8 2.00006C7.60609 1.99992 7.21603 2.07758 6.85222 2.2286C6.48841 2.37961 6.15801 2.601 5.88 2.88005L6.5865 3.58654C6.77199 3.40068 6.99231 3.25323 7.23486 3.15262C7.47741 3.05202 7.73741 3.00023 8 3.00023C8.26258 3.00023 8.52259 3.05202 8.76514 3.15262C9.00769 3.25323 9.22801 3.40068 9.4135 3.58654L10.1205 2.87955C9.8424 2.60051 9.51191 2.37916 9.148 2.22823C8.7841 2.0773 8.39396 1.99976 8 2.00006Z" fill="white"/>
<path d="M4.46582 1.46623L5.17282 2.17322C5.5438 1.80151 5.98445 1.5066 6.46954 1.30539C6.95464 1.10417 7.47465 1.0006 7.99982 1.0006C8.52499 1.0006 9.045 1.10417 9.5301 1.30539C10.0152 1.5066 10.4558 1.80151 10.8268 2.17322L11.5338 1.46623C11.0701 1.00145 10.5193 0.632704 9.91287 0.381106C9.30645 0.129507 8.65636 0 7.99982 0C7.34328 0 6.69319 0.129507 6.08677 0.381106C5.48035 0.632704 4.92952 1.00145 4.46582 1.46623Z" fill="white"/>
</svg>
