<svg width="24" height="24" viewBox="0 0 24 24" fill="none" xmlns="http://www.w3.org/2000/svg">
<path d="M16.171 20.1308C16.171 20.2808 16.1114 20.4247 16.0053 20.5308C15.8992 20.6369 15.7553 20.6965 15.6053 20.6965H2.02998C1.87996 20.6965 1.73609 20.6369 1.63001 20.5308C1.52394 20.4247 1.46434 20.2808 1.46434 20.1308C1.46434 19.9808 1.52394 19.8369 1.63001 19.7309C1.73609 19.6248 1.87996 19.5652 2.02998 19.5652H15.6053C15.7553 19.5652 15.8992 19.6248 16.0053 19.7309C16.1114 19.8369 16.171 19.9808 16.171 20.1308ZM23.3263 8.54464C23.3108 8.62478 23.2784 8.7007 23.2312 8.76734C23.1841 8.83399 23.1233 8.88983 23.0529 8.93116L8.77994 17.2272C8.11473 17.6182 7.3406 17.7827 6.57389 17.696C5.80718 17.6093 5.08933 17.2761 4.52822 16.7464L0.974121 13.4091C0.81494 13.2594 0.695431 13.0725 0.626323 12.8652C0.557215 12.6578 0.54067 12.4366 0.578174 12.2213C0.61369 12.0045 0.7043 11.8005 0.841315 11.6288C0.97833 11.4572 1.15715 11.3236 1.36064 11.2409L2.935 10.5621C3.00589 10.5292 3.08311 10.5121 3.16126 10.5121C3.23941 10.5121 3.31663 10.5292 3.38752 10.5621L5.7632 11.5802L7.47897 10.5998L5.16928 8.51636C5.00427 8.36805 4.879 8.1808 4.8049 7.97168C4.7308 7.76255 4.71023 7.53821 4.74505 7.31909C4.78079 7.10127 4.87136 6.89611 5.00824 6.72295C5.14513 6.54978 5.32383 6.41429 5.52752 6.32922L7.08302 5.65988C7.21073 5.60183 7.35586 5.59508 7.4884 5.64103L12.8997 7.44165L16.8592 5.1131C17.5958 4.67723 18.4644 4.52028 19.307 4.6708C20.1496 4.82133 20.9101 5.26932 21.4503 5.93327L23.2037 8.0827C23.2578 8.1454 23.2969 8.21955 23.3182 8.29957C23.3394 8.37959 23.3422 8.46339 23.3263 8.54464ZM21.9122 8.2901L20.5735 6.64975C20.2049 6.1946 19.6844 5.88774 19.1077 5.78556C18.531 5.68338 17.9368 5.79273 17.4342 6.09354L13.2485 8.55407C13.1792 8.59416 13.1022 8.6191 13.0226 8.62722C12.943 8.63535 12.8625 8.62648 12.7866 8.60121L7.33756 6.78173L5.98003 7.36623C5.95105 7.37836 5.92556 7.39753 5.90587 7.42202C5.88619 7.4465 5.87294 7.47552 5.86732 7.50643C5.8617 7.53734 5.86389 7.56916 5.87369 7.59901C5.8835 7.62885 5.90061 7.65578 5.92346 7.67733L8.81765 10.2793C8.88381 10.3396 8.93521 10.4144 8.96791 10.4977C9.0006 10.5811 9.0137 10.6708 9.0062 10.7601C8.99698 10.8496 8.96651 10.9357 8.91732 11.0111C8.86812 11.0866 8.80163 11.1492 8.72338 11.1937L6.08373 12.7021C6.00701 12.7463 5.92098 12.7719 5.83256 12.7768C5.74414 12.7818 5.6558 12.7658 5.57465 12.7304L3.16126 11.6934L1.80373 12.2779C1.77452 12.29 1.74884 12.3094 1.72907 12.3341C1.7093 12.3588 1.69607 12.3881 1.6906 12.4193C1.68605 12.45 1.6888 12.4814 1.69862 12.5109C1.70845 12.5403 1.72508 12.5671 1.74716 12.589L5.30126 15.9168C5.68487 16.2811 6.1768 16.5104 6.70248 16.57C7.22817 16.6295 7.75893 16.5161 8.2143 16.2468L21.9122 8.2901Z" fill="#969696"/>
</svg>
