<svg width="22" height="22" viewBox="0 0 22 22" fill="none" xmlns="http://www.w3.org/2000/svg">
<path d="M9.64824 5.54738L9.64832 5.54702C9.65452 5.51819 9.65497 5.48842 9.64966 5.4594C9.64435 5.43039 9.63338 5.40271 9.61737 5.37795C9.60136 5.35318 9.58062 5.33181 9.55635 5.31506C9.53208 5.29831 9.50475 5.28651 9.47591 5.28032L9.59357 4.73157L9.47559 5.28025C9.44675 5.27405 9.41698 5.2736 9.38798 5.27891C9.35897 5.28422 9.33129 5.29519 9.30652 5.3112C9.28175 5.32721 9.26038 5.34795 9.24363 5.37222C9.22689 5.39648 9.21509 5.4238 9.2089 5.45262C9.2089 5.45263 9.2089 5.45265 9.20889 5.45266L8.66833 7.97476L8.57325 8.41837H8.11957H6.28571C6.22617 8.41837 6.16908 8.44202 6.12698 8.48412C6.08488 8.52622 6.06122 8.58332 6.06122 8.64286C6.06122 8.7024 6.08488 8.7595 6.12698 8.8016C6.16908 8.84369 6.22617 8.86735 6.28571 8.86735H7.78486H8.47957L8.33354 9.54654L7.65783 12.6894L7.56253 13.1327H7.10914H5.5C5.44046 13.1327 5.38336 13.1563 5.34126 13.1984C5.29916 13.2405 5.27551 13.2976 5.27551 13.3571C5.27551 13.4167 5.29916 13.4738 5.34126 13.5159C5.38336 13.558 5.44046 13.5816 5.5 13.5816H6.77443H7.46918L7.32311 14.2609L6.85172 16.4528C6.83921 16.5111 6.85035 16.5719 6.88271 16.622C6.91507 16.6721 6.96598 16.7072 7.02425 16.7197C7.08252 16.7322 7.14338 16.7211 7.19343 16.6887C7.21821 16.6727 7.2396 16.652 7.25636 16.6277C7.27309 16.6034 7.28489 16.5762 7.2911 16.5474L9.64824 5.54738ZM9.64824 5.54738L9.17838 7.73952L9.03288 8.41837H9.72714H13.6196H14.0735L14.1684 7.97443L14.7073 5.45282C14.7073 5.45274 14.7073 5.45265 14.7073 5.45257C14.7199 5.3944 14.755 5.34359 14.805 5.31128C14.8551 5.27892 14.9159 5.26778 14.9742 5.28029C15.0324 5.2928 15.0834 5.32795 15.1157 5.378C15.1481 5.42805 15.1592 5.48891 15.1467 5.54718L15.1466 5.54776L14.6783 7.7399L14.5334 8.41837H15.2271H16.5016C16.5611 8.41837 16.6182 8.44202 16.6603 8.48412C16.7024 8.52622 16.7261 8.58332 16.7261 8.64286C16.7261 8.70239 16.7024 8.75949 16.6603 8.8016C16.6182 8.8437 16.5611 8.86735 16.5016 8.86735H14.8909H14.437L14.3421 9.31113L13.6695 12.454L13.5243 13.1327H14.2183H15.7143C15.7738 13.1327 15.8309 13.1563 15.873 13.1984C15.9151 13.2405 15.9388 13.2976 15.9388 13.3571C15.9388 13.4167 15.9151 13.4738 15.873 13.5159C15.8309 13.558 15.7738 13.5816 15.7143 13.5816H13.8804H13.4268L13.3317 14.0252L12.7911 16.5456C12.7786 16.6039 12.7435 16.6548 12.6934 16.6871C12.6434 16.7195 12.5825 16.7307 12.5243 16.7181C12.466 16.7056 12.4151 16.6705 12.3827 16.6204C12.3504 16.5704 12.3392 16.5095 12.3517 16.4513L12.3517 16.4511L12.8216 14.2606L12.9672 13.5816H12.2729H8.38043H7.92675L7.83167 14.0252L7.29114 16.5472L9.64824 5.54738ZM9.84743 7.29592L10.197 5.665L9.84743 7.29592ZM9.84743 7.29592H9.72714V7.85714M9.84743 7.29592L9.72714 7.85714M9.72714 7.85714L10.2759 7.97476L10.3011 7.85714M9.72714 7.85714H10.3011M10.3011 7.85714H13.6196H10.3011ZM8.16797 12.4537L8.02234 13.1327H8.71671H12.6091H13.0628L13.1579 12.6891L13.832 9.54628L13.9777 8.86735H13.2833H9.39086H8.93725L8.84211 9.31087L8.16797 12.4537ZM0.561224 3.92857C0.561224 3.0355 0.915997 2.179 1.5475 1.5475C2.179 0.915997 3.0355 0.561224 3.92857 0.561224H18.0714C18.9645 0.561224 19.821 0.915997 20.4525 1.5475C21.084 2.179 21.4388 3.0355 21.4388 3.92857V18.0714C21.4388 18.9645 21.084 19.821 20.4525 20.4525C19.821 21.084 18.9645 21.4388 18.0714 21.4388H3.92857C3.0355 21.4388 2.179 21.084 1.5475 20.4525C0.915997 19.821 0.561224 18.9645 0.561224 18.0714V3.92857ZM3.92857 1.0102C3.15457 1.0102 2.41227 1.31767 1.86497 1.86497C1.31767 2.41227 1.0102 3.15457 1.0102 3.92857V18.0714C1.0102 18.8454 1.31767 19.5877 1.86497 20.135C2.41227 20.6823 3.15457 20.9898 3.92857 20.9898H18.0714C18.8454 20.9898 19.5877 20.6823 20.135 20.135C20.6823 19.5877 20.9898 18.8454 20.9898 18.0714V3.92857C20.9898 3.15457 20.6823 2.41227 20.135 1.86497C19.5877 1.31767 18.8454 1.0102 18.0714 1.0102H3.92857Z" fill="#969696" stroke="#969696" stroke-width="1.12245"/>
</svg>
