<svg width="24" height="24" viewBox="0 0 24 24" fill="none" xmlns="http://www.w3.org/2000/svg">
<path d="M10.4759 5.28032L10.4756 5.28025C10.4468 5.27405 10.417 5.2736 10.388 5.27891C10.359 5.28422 10.3313 5.29519 10.3065 5.3112L10.0018 4.83989L10.3065 5.3112C10.2818 5.32721 10.2604 5.34795 10.2436 5.37222C10.2269 5.39649 10.2151 5.42383 10.2089 5.45266L9.66833 7.97476L9.57325 8.41837H9.11957H7.28571C7.22618 8.41837 7.16908 8.44202 7.12698 8.48412C7.08488 8.52622 7.06122 8.58332 7.06122 8.64286C7.06122 8.7024 7.08488 8.7595 7.12698 8.8016C7.16908 8.8437 7.22618 8.86735 7.28571 8.86735H8.78486H9.47957L9.33354 9.54654L8.65783 12.6894L8.56253 13.1327H8.10914H6.5C6.44046 13.1327 6.38336 13.1563 6.34126 13.1984C6.29916 13.2405 6.27551 13.2976 6.27551 13.3571C6.27551 13.4167 6.29916 13.4738 6.34126 13.5159C6.38336 13.558 6.44046 13.5816 6.5 13.5816H7.77443H8.46918L8.32311 14.2609L7.85172 16.4528L10.4759 5.28032ZM10.4759 5.28032C10.5047 5.28651 10.5321 5.29831 10.5564 5.31506C10.5806 5.33181 10.6014 5.35318 10.6174 5.37795L11.0887 5.07326M10.4759 5.28032L11.0887 5.07326M11.0887 5.07326L10.6174 5.37795C10.6334 5.40271 10.6444 5.43039 10.6497 5.4594C10.655 5.48842 10.6545 5.51819 10.6483 5.54702L10.6482 5.54738M11.0887 5.07326L10.6482 5.54738M10.6482 5.54738L10.1784 7.73952L10.0329 8.41837H10.7271H14.6196H15.0735L15.1684 7.97443L15.7073 5.45282M10.6482 5.54738L15.7073 5.45282M15.7073 5.45282C15.7073 5.45277 15.7073 5.45272 15.7073 5.45267C15.7199 5.39446 15.755 5.34361 15.805 5.31128C15.8551 5.27892 15.9159 5.26778 15.9742 5.28029C16.0324 5.2928 16.0834 5.32795 16.1157 5.378C16.1481 5.42805 16.1592 5.48891 16.1467 5.54718L16.1466 5.54776L15.6783 7.7399L15.5334 8.41837H16.2271H17.5016C17.5611 8.41837 17.6182 8.44202 17.6603 8.48412C17.7024 8.52622 17.7261 8.58332 17.7261 8.64286C17.7261 8.70239 17.7024 8.75949 17.6603 8.8016C17.6182 8.8437 17.5611 8.86735 17.5016 8.86735H15.8909H15.437L15.3421 9.31113L14.6695 12.454L14.5243 13.1327H15.2183H16.7143C16.7738 13.1327 16.8309 13.1563 16.873 13.1984C16.9151 13.2405 16.9388 13.2976 16.9388 13.3571C16.9388 13.4167 16.9151 13.4738 16.873 13.5159C16.8309 13.558 16.7738 13.5816 16.7143 13.5816H14.8804H14.4268L14.3317 14.0252L13.7911 16.5456M15.7073 5.45282L13.7911 16.5456M13.7911 16.5456C13.7911 16.5457 13.7911 16.5457 13.7911 16.5457C13.7786 16.604 13.7434 16.6548 13.6934 16.6871C13.6434 16.7195 13.5825 16.7307 13.5243 16.7181C13.466 16.7056 13.4151 16.6705 13.3827 16.6204C13.3504 16.5704 13.3392 16.5095 13.3517 16.4513L13.3517 16.4511L13.8216 14.2606L13.9672 13.5816H13.2729H9.38043H8.92675L8.83167 14.0252L8.29114 16.5472L13.7911 16.5456ZM8.29109 16.5474C8.28489 16.5762 8.27309 16.6034 8.25636 16.6277C8.23959 16.652 8.21821 16.6727 8.19343 16.6887L8.49812 17.16L8.19343 16.6887C8.14338 16.7211 8.08252 16.7322 8.02425 16.7197C7.96598 16.7072 7.91507 16.6721 7.88271 16.622C7.85038 16.572 7.83923 16.5112 7.85168 16.453L8.29109 16.5474ZM9.16797 12.4537L9.02234 13.1327H9.71671H13.6091H14.0628L14.1579 12.6891L14.832 9.54628L14.9777 8.86735H14.2833H10.3909H9.93725L9.84211 9.31087L9.16797 12.4537ZM1.56122 3.92857C1.56122 3.0355 1.916 2.179 2.5475 1.5475C3.179 0.915997 4.0355 0.561224 4.92857 0.561224H19.0714C19.9645 0.561224 20.821 0.915998 21.4525 1.5475C22.084 2.179 22.4388 3.0355 22.4388 3.92857V18.0714C22.4388 18.9645 22.084 19.821 21.4525 20.4525C20.821 21.084 19.9645 21.4388 19.0714 21.4388H4.92857C4.0355 21.4388 3.179 21.084 2.5475 20.4525C1.916 19.821 1.56122 18.9645 1.56122 18.0714V3.92857ZM4.92857 1.0102C4.15457 1.0102 3.41227 1.31767 2.86497 1.86497C2.31767 2.41227 2.0102 3.15457 2.0102 3.92857V18.0714C2.0102 18.8454 2.31767 19.5877 2.86497 20.135C3.41227 20.6823 4.15457 20.9898 4.92857 20.9898H19.0714C19.8454 20.9898 20.5877 20.6823 21.135 20.135C21.6823 19.5877 21.9898 18.8454 21.9898 18.0714V3.92857C21.9898 3.15457 21.6823 2.41227 21.135 1.86497C20.5877 1.31767 19.8454 1.0102 19.0714 1.0102H4.92857Z" fill="#969696" stroke="#969696" stroke-width="1.12245"/>
</svg>
