<svg width="11" height="6" viewBox="0 0 11 6" fill="none" xmlns="http://www.w3.org/2000/svg">
<path d="M5.05473 5.523C5.10442 5.56741 5.17092 5.60373 5.24848 5.62881C5.32604 5.6539 5.41236 5.66701 5.49998 5.66701C5.58761 5.66701 5.67392 5.6539 5.75148 5.62881C5.82905 5.60373 5.89554 5.56741 5.94523 5.523L10.8202 1.18966C10.8767 1.13968 10.9097 1.08114 10.9159 1.0204C10.9221 0.959658 10.9011 0.899039 10.8552 0.845129C10.8093 0.791219 10.7402 0.74608 10.6556 0.714617C10.5709 0.683153 10.4739 0.666569 10.375 0.666665H0.624981C0.526313 0.666915 0.429622 0.683713 0.345308 0.715252C0.260994 0.746791 0.192245 0.791877 0.146456 0.845662C0.100666 0.899447 0.0795689 0.959896 0.0854318 1.02051C0.0912948 1.08112 0.123897 1.1396 0.179731 1.18966L5.05473 5.523Z" fill="white"/>
</svg>
