<?xml version="1.0" standalone="no"?>
<!DOCTYPE svg PUBLIC "-//W3C//DTD SVG 20010904//EN"
 "http://www.w3.org/TR/2001/REC-SVG-20010904/DTD/svg10.dtd">
<svg version="1.0" xmlns="http://www.w3.org/2000/svg"
 width="213.000000pt" height="213.000000pt" viewBox="0 0 213.000000 213.000000"
 preserveAspectRatio="xMidYMid meet">
<metadata>
Created by potrace 1.14, written by Peter Selinger 2001-2017
</metadata>
<g transform="translate(0.000000,213.000000) scale(0.100000,-0.100000)"
fill="#000000" stroke="none">
<path d="M940 2122 c-152 -18 -348 -93 -480 -182 -96 -65 -97 -65 68 -65 168
-1 231 -7 322 -34 310 -88 544 -308 615 -577 17 -64 19 -242 2 -304 -18 -70
-62 -146 -117 -200 -163 -164 -420 -165 -589 -2 -91 88 -131 188 -128 320 2
80 6 95 40 164 69 140 179 226 312 244 22 4 43 9 48 13 12 11 -141 98 -233
132 -148 54 -341 47 -470 -18 -147 -74 -260 -219 -306 -393 -22 -85 -26 -262
-8 -363 90 -503 546 -866 1068 -851 124 3 184 13 301 51 154 49 299 139 416
256 86 87 136 157 196 272 77 150 114 303 115 474 2 415 -238 794 -612 968
-79 37 -208 78 -274 88 -51 8 -242 13 -286 7z"/>
</g>
</svg>
