<svg width="500" height="502" viewBox="0 0 500 502" fill="none" xmlns="http://www.w3.org/2000/svg">
<path fill-rule="evenodd" clip-rule="evenodd" d="M196.574 5.57551C160.892 13.8921 120.291 33.1319 95.3704 53.5308L88.7277 58.9711L120.782 58.252C172.628 57.0882 215.263 66.8879 253.464 88.7509C298.522 114.538 327.936 148.845 343.527 193.796C349.316 210.486 350.082 216.066 350.006 241.104C349.909 273.464 346.123 287.358 331.322 309.661C310.871 340.479 271.167 357.725 235.238 351.395C178.507 341.399 140.651 289.745 150.018 235.107C157.515 191.388 192.925 155.814 234.129 150.607L248.001 148.855L237.676 141.475C223.648 131.45 201.843 120.7 182.187 114.117C168.665 109.59 160.996 108.665 137.487 108.733C103.874 108.828 87.8291 113.438 62.4714 130.289C-26.2271 189.229 -19.3432 344.314 75.9247 433.457C135.726 489.409 221.39 513.519 300.878 496.77C459.127 463.423 545.059 290.043 475.808 143.819C444.309 77.3073 388.822 30.135 317.211 8.99345C298.579 3.49399 290.593 0.778022 255.397 0.0991641C222.496 -0.537117 212.085 1.95888 196.574 5.57551Z" fill="url(#paint0_linear_119_3)"/>
<defs>
<linearGradient id="paint0_linear_119_3" x1="250" y1="1.72109" x2="250" y2="502" gradientUnits="userSpaceOnUse">
<stop stop-color="#FD713A"/>
<stop offset="1" stop-color="#FD3D3F"/>
</linearGradient>
</defs>
</svg>
