<svg width="24" height="24" viewBox="0 0 24 24" fill="none" xmlns="http://www.w3.org/2000/svg">
<path d="M9.8793 14.1219C10.1571 14.4042 10.488 14.6287 10.8529 14.7824C11.2179 14.9362 11.6097 15.0161 12.0057 15.0177C12.4017 15.0192 12.7941 14.9424 13.1603 14.7915C13.5265 14.6407 13.8592 14.4188 14.1391 14.1388C14.4191 13.8587 14.6409 13.526 14.7917 13.1598C14.9424 12.7936 15.0192 12.4012 15.0176 12.0051C15.0159 11.6091 14.9358 11.2173 14.782 10.8524C14.6282 10.4875 14.4036 10.1566 14.1213 9.87893C13.5571 9.32395 12.7964 9.01441 12.005 9.01773C11.2136 9.02104 10.4556 9.33695 9.89601 9.89663C9.33646 10.4563 9.02073 11.2144 9.0176 12.0058C9.01447 12.7973 9.32419 13.5578 9.8793 14.1219V14.1219Z" stroke="#969696" stroke-width="1.5" stroke-miterlimit="1.5" stroke-linecap="round" stroke-linejoin="round"/>
<path d="M19.715 7.36696C20.5574 8.76534 21.0014 10.3674 20.999 12C20.999 15.806 18.631 19.063 15.29 20.378C14.27 20.778 13.16 20.999 12 20.999M4.36997 16.773C3.47324 15.3427 2.99902 13.6881 3.00197 12C3.00197 7.76396 5.93597 4.20796 9.87997 3.25296C10.5742 3.08546 11.2858 3.0012 12 3.00196L4.36997 16.773Z" stroke="#969696" stroke-width="1.497" stroke-miterlimit="1.5" stroke-linecap="round" stroke-linejoin="round"/>
<path d="M14.1206 9.87998C14.1206 9.87998 14.1116 7.07698 15.5356 5.63698C16.9456 4.22798 18.3286 2.77198 19.7776 4.22198C21.1546 5.59998 19.7926 7.03198 18.3636 8.46498C16.9616 9.87098 14.1206 9.87898 14.1206 9.87898V9.87998ZM9.87859 14.12C9.87859 14.12 9.88759 16.923 8.46359 18.363C7.05359 19.772 5.67059 21.228 4.22159 19.778C2.84459 18.4 4.20659 16.968 5.63559 15.535C7.03759 14.129 9.87859 14.121 9.87859 14.121V14.12Z" stroke="#969696" stroke-width="1.5" stroke-miterlimit="1.5" stroke-linecap="round" stroke-linejoin="round"/>
</svg>
