<svg width="24" height="24" viewBox="0 0 24 24" fill="none" xmlns="http://www.w3.org/2000/svg">
<path d="M18.854 6.27951L17.1008 4.46391L15.3476 6.27951C15.1818 6.45137 14.9545 6.55033 14.7157 6.5546C14.477 6.55888 14.2463 6.46813 14.0744 6.30231C13.9025 6.1365 13.8036 5.90921 13.7993 5.67044C13.795 5.43166 13.8858 5.20097 14.0516 5.02911L16.2368 2.76591C16.3488 2.64977 16.483 2.5574 16.6314 2.4943C16.7799 2.4312 16.9395 2.39868 17.1008 2.39868C17.2621 2.39868 17.4218 2.4312 17.5702 2.4943C17.7187 2.5574 17.8529 2.64977 17.9648 2.76591L20.1488 5.02911C20.3146 5.20081 20.4054 5.43135 20.4013 5.67001C20.3971 5.90867 20.2983 6.1359 20.1266 6.30171C19.9549 6.46753 19.7244 6.55834 19.4857 6.55418C19.2471 6.55001 19.0198 6.45121 18.854 6.27951ZM18.854 17.7203L17.1008 19.5359L15.3476 17.7203C15.1818 17.5485 14.9545 17.4495 14.7157 17.4452C14.477 17.4409 14.2463 17.5317 14.0744 17.6975C13.9025 17.8633 13.8036 18.0906 13.7993 18.3294C13.795 18.5682 13.8858 18.7989 14.0516 18.9707L16.2368 21.2339C16.3488 21.3501 16.483 21.4424 16.6314 21.5055C16.7799 21.5686 16.9395 21.6011 17.1008 21.6011C17.2621 21.6011 17.4218 21.5686 17.5702 21.5055C17.7187 21.4424 17.8529 21.3501 17.9648 21.2339L20.1488 18.9707C20.3146 18.799 20.4054 18.5685 20.4013 18.3298C20.3971 18.0912 20.2983 17.8639 20.1266 17.6981C19.9549 17.5323 19.7244 17.4415 19.4857 17.4457C19.2471 17.4498 19.0198 17.5486 18.854 17.7203ZM17.102 14.3999C17.3407 14.3999 17.5696 14.4947 17.7384 14.6635C17.9072 14.8323 18.002 15.0612 18.002 15.2999V15.8999C18.002 16.1386 17.9072 16.3675 17.7384 16.5363C17.5696 16.7051 17.3407 16.7999 17.102 16.7999C16.8633 16.7999 16.6344 16.7051 16.4656 16.5363C16.2968 16.3675 16.202 16.1386 16.202 15.8999V15.2999C16.202 15.0612 16.2968 14.8323 16.4656 14.6635C16.6344 14.4947 16.8633 14.3999 17.102 14.3999ZM18.002 12.2999C18.002 12.5386 17.9072 12.7675 17.7384 12.9363C17.5696 13.1051 17.3407 13.1999 17.102 13.1999C16.8633 13.1999 16.6344 13.1051 16.4656 12.9363C16.2968 12.7675 16.202 12.5386 16.202 12.2999V11.6999C16.202 11.4612 16.2968 11.2323 16.4656 11.0635C16.6344 10.8947 16.8633 10.7999 17.102 10.7999C17.3407 10.7999 17.5696 10.8947 17.7384 11.0635C17.9072 11.2323 18.002 11.4612 18.002 11.6999V12.2999ZM17.1032 9.59991C17.3419 9.59991 17.5708 9.50509 17.7396 9.33631C17.9084 9.16753 18.0032 8.93861 18.0032 8.69991V8.09991C18.0032 7.86122 17.9084 7.6323 17.7396 7.46352C17.5708 7.29473 17.3419 7.19991 17.1032 7.19991C16.8645 7.19991 16.6356 7.29473 16.4668 7.46352C16.298 7.6323 16.2032 7.86122 16.2032 8.09991V8.69991C16.2032 9.19671 16.6064 9.59991 17.1032 9.59991ZM5.99961 3.59991C5.36309 3.59991 4.75264 3.85277 4.30255 4.30286C3.85247 4.75294 3.59961 5.36339 3.59961 5.99991V17.9999C3.59961 18.6364 3.85247 19.2469 4.30255 19.697C4.75264 20.1471 5.36309 20.3999 5.99961 20.3999H11.0996C11.3383 20.3999 11.5672 20.3051 11.736 20.1363C11.9048 19.9675 11.9996 19.7386 11.9996 19.4999C11.9996 19.2612 11.9048 19.0323 11.736 18.8635C11.5672 18.6947 11.3383 18.5999 11.0996 18.5999H5.99961C5.84048 18.5999 5.68787 18.5367 5.57535 18.4242C5.46282 18.3117 5.39961 18.159 5.39961 17.9999V5.99991C5.39961 5.84078 5.46282 5.68817 5.57535 5.57565C5.68787 5.46313 5.84048 5.39991 5.99961 5.39991H11.0996C11.3383 5.39991 11.5672 5.30509 11.736 5.13631C11.9048 4.96753 11.9996 4.73861 11.9996 4.49991C11.9996 4.26122 11.9048 4.0323 11.736 3.86352C11.5672 3.69473 11.3383 3.59991 11.0996 3.59991H5.99961Z" fill="#969696"/>
</svg>
