<svg width="24" height="24" viewBox="0 0 24 24" fill="none" xmlns="http://www.w3.org/2000/svg">
<path d="M20.2498 16.6064V7.39343C20.7616 7.26228 21.2296 6.99804 21.6062 6.62753C21.9829 6.25702 22.2548 5.79344 22.3943 5.28386C22.5338 4.77428 22.536 4.23686 22.4007 3.72616C22.2653 3.21545 21.9973 2.74966 21.6237 2.37607C21.2501 2.00248 20.7843 1.7344 20.2736 1.59905C19.7629 1.46371 19.2255 1.46591 18.7159 1.60545C18.2063 1.74498 17.7427 2.01687 17.3722 2.39351C17.0017 2.77016 16.7375 3.23814 16.6063 3.74993H7.39331C7.26216 3.23814 6.99791 2.77016 6.6274 2.39351C6.25689 2.01687 5.79331 1.74498 5.28374 1.60545C4.77416 1.46591 4.23674 1.46371 3.72603 1.59905C3.21533 1.7344 2.74953 2.00248 2.37595 2.37607C2.00236 2.74966 1.73428 3.21545 1.59893 3.72616C1.46359 4.23686 1.46579 4.77428 1.60532 5.28386C1.74486 5.79344 2.01675 6.25702 2.39339 6.62753C2.77003 6.99804 3.23801 7.26228 3.74981 7.39343V16.6064C3.23801 16.7376 2.77003 17.0018 2.39339 17.3723C2.01675 17.7428 1.74486 18.2064 1.60532 18.716C1.46579 19.2256 1.46359 19.763 1.59893 20.2737C1.73428 20.7844 2.00236 21.2502 2.37595 21.6238C2.74953 21.9974 3.21533 22.2655 3.72603 22.4008C4.23674 22.5362 4.77416 22.534 5.28374 22.3944C5.79331 22.2549 6.25689 21.983 6.6274 21.6063C6.99791 21.2297 7.26216 20.7617 7.39331 20.2499H16.6063C16.7375 20.7617 17.0017 21.2297 17.3722 21.6063C17.7427 21.983 18.2063 22.2549 18.7159 22.3944C19.2255 22.534 19.7629 22.5362 20.2736 22.4008C20.7843 22.2655 21.2501 21.9974 21.6237 21.6238C21.9973 21.2502 22.2653 20.7844 22.4007 20.2737C22.536 19.763 22.5338 19.2256 22.3943 18.716C22.2548 18.2064 21.9829 17.7428 21.6062 17.3723C21.2296 17.0018 20.7616 16.7376 20.2498 16.6064ZM19.4998 2.99993C19.7965 2.99993 20.0865 3.08791 20.3332 3.25273C20.5798 3.41755 20.7721 3.65182 20.8856 3.92591C20.9992 4.2 21.0289 4.5016 20.971 4.79257C20.9131 5.08354 20.7702 5.35081 20.5605 5.56059C20.3507 5.77037 20.0834 5.91323 19.7924 5.97111C19.5015 6.02899 19.1999 5.99928 18.9258 5.88575C18.6517 5.77222 18.4174 5.57996 18.2526 5.33329C18.0878 5.08661 17.9998 4.79661 17.9998 4.49993C18.0002 4.10223 18.1584 3.72093 18.4396 3.43971C18.7208 3.15849 19.1021 3.00033 19.4998 2.99993ZM2.99981 4.49993C2.99981 4.20326 3.08779 3.91325 3.25261 3.66658C3.41743 3.4199 3.6517 3.22765 3.92579 3.11411C4.19988 3.00058 4.50148 2.97088 4.79245 3.02876C5.08342 3.08663 5.35069 3.22949 5.56047 3.43927C5.77025 3.64905 5.91311 3.91633 5.97099 4.2073C6.02887 4.49827 5.99916 4.79987 5.88563 5.07396C5.7721 5.34805 5.57984 5.58232 5.33317 5.74714C5.08649 5.91196 4.79648 5.99993 4.49981 5.99993C4.10211 5.99954 3.72081 5.84137 3.43959 5.56015C3.15837 5.27894 3.00021 4.89764 2.99981 4.49993ZM4.49981 20.9999C4.20314 20.9999 3.91313 20.912 3.66646 20.7471C3.41978 20.5823 3.22752 20.348 3.11399 20.074C3.00046 19.7999 2.97076 19.4983 3.02863 19.2073C3.08651 18.9163 3.22937 18.649 3.43915 18.4393C3.64893 18.2295 3.9162 18.0866 4.20718 18.0288C4.49815 17.9709 4.79975 18.0006 5.07384 18.1141C5.34793 18.2276 5.58219 18.4199 5.74702 18.6666C5.91184 18.9132 5.99981 19.2033 5.99981 19.4999C5.99941 19.8976 5.84125 20.2789 5.56003 20.5602C5.27881 20.8414 4.89751 20.9995 4.49981 20.9999ZM16.6063 18.7499H7.39331C7.25897 18.2343 6.98951 17.7638 6.61272 17.387C6.23593 17.0102 5.76546 16.7408 5.24981 16.6064V7.39343C5.76542 7.25902 6.23586 6.98953 6.61263 6.61276C6.98941 6.23598 7.25889 5.76554 7.39331 5.24993H16.6063C16.7407 5.76558 17.0101 6.23605 17.3869 6.61284C17.7637 6.98963 18.2342 7.25909 18.7498 7.39343V16.6064C18.2341 16.7407 17.7636 17.0101 17.3868 17.3869C17.01 17.7637 16.7406 18.2343 16.6063 18.7499ZM19.4998 20.9999C19.2031 20.9999 18.9131 20.912 18.6665 20.7471C18.4198 20.5823 18.2275 20.348 18.114 20.074C18.0005 19.7999 17.9708 19.4983 18.0286 19.2073C18.0865 18.9163 18.2294 18.649 18.4391 18.4393C18.6489 18.2295 18.9162 18.0866 19.2072 18.0288C19.4981 17.9709 19.7997 18.0006 20.0738 18.1141C20.3479 18.2276 20.5822 18.4199 20.747 18.6666C20.9118 18.9132 20.9998 19.2033 20.9998 19.4999C20.9992 19.8976 20.841 20.2788 20.5598 20.5599C20.2786 20.8411 19.8975 20.9993 19.4998 20.9999Z" fill="#969696"/>
</svg>
