<svg width="13" height="13" viewBox="0 0 13 13" fill="none" xmlns="http://www.w3.org/2000/svg">
<g opacity="0.6">
<path d="M0.928571 8.35714V9.28571H3.05779L0 12.3435L0.6565 13L3.71429 9.94221V12.0714H4.64286V8.35714H0.928571ZM10.2143 8.82143H11.1429V11.1429H10.2143V8.82143ZM8.35714 6.5H9.28572V11.1429H8.35714V6.5ZM6.5 7.42857H7.42857V11.1429H6.5V7.42857Z" fill="white"/>
<path d="M12.0714 0H0.928571C0.682374 0.000245828 0.446331 0.0981561 0.272244 0.272244C0.0981561 0.446331 0.000245828 0.682374 0 0.928571V6.5H0.928571V5.10714H12.0719L12.0724 12.0714H6.5V13H12.0714C12.3176 12.9996 12.5536 12.9017 12.7276 12.7276C12.9017 12.5536 12.9996 12.3176 13 12.0714V0.928571C12.9998 0.682374 12.9018 0.446331 12.7278 0.272244C12.5537 0.0981561 12.3176 0.000245828 12.0714 0ZM4.64286 4.17857H0.928571V0.928571H4.64286V4.17857ZM5.57143 4.17857V0.928571H12.0714V4.17857H5.57143Z" fill="white"/>
</g>
</svg>
