<svg width="24" height="24" viewBox="0 0 24 24" fill="none" xmlns="http://www.w3.org/2000/svg">
<path fill-rule="evenodd" clip-rule="evenodd" d="M18.7961 0.101671C16.8937 0.549807 15.4808 2.37601 15.382 4.5146C15.3376 5.47463 15.4913 6.19615 15.9762 7.30345C16.5992 8.72649 17.9784 10.696 19.3505 12.122L19.6936 12.4786L20.2591 11.8542C22.3475 9.54842 23.6578 7.30445 23.9404 5.54966C24.1742 4.09782 23.7091 2.49878 22.7378 1.41561C21.708 0.267209 20.2115 -0.231708 18.7961 0.101671ZM20.3453 1.6524C21.3379 1.91248 22.171 2.7919 22.4839 3.90956C22.6115 4.3655 22.6236 4.99781 22.514 5.48128C22.2391 6.6936 21.3474 8.26202 20.0026 9.89892L19.6832 10.2875L19.3767 9.92107C18.5146 8.89072 17.6453 7.54265 17.2252 6.58455C16.6704 5.31931 16.6323 4.40565 17.0903 3.35086C17.3023 2.86241 17.873 2.2077 18.3127 1.9485C18.9081 1.59748 19.6971 1.48251 20.3453 1.6524ZM19.3028 3.31647C18.2937 3.63351 17.95 5.07723 18.6878 5.89994C19.242 6.51807 20.122 6.51807 20.6646 5.9C21.2216 5.26533 21.2051 4.29927 20.6268 3.69602C20.5031 3.56702 20.3214 3.42394 20.2229 3.37803C19.9727 3.2615 19.5646 3.23417 19.3028 3.31647ZM12.3349 10.7315C11.2536 11.0477 10.3889 11.9616 10.0307 13.1669C9.92163 13.5337 9.90619 13.6702 9.90619 14.2663C9.90619 14.8629 9.92158 14.9988 10.031 15.3668C10.3957 16.5943 11.2649 17.5087 12.3769 17.8352C12.6233 17.9075 13.0622 17.9261 15.1357 17.9522L17.6014 17.9833L17.9103 18.153C18.2911 18.3622 18.6125 18.7334 18.8003 19.1809C19.32 20.4195 18.6137 21.8675 17.381 22.0906C17.1896 22.1252 15.295 22.1447 12.0949 22.1449L7.10711 22.1453V22.9323V23.7193L12.3531 23.7023C18.1978 23.6833 17.8396 23.7055 18.5433 23.3183C19.3917 22.8515 20.0403 21.9661 20.2846 20.9412C20.3952 20.4773 20.3932 19.5662 20.2806 19.1089C19.9793 17.885 19.2132 16.9855 18.0879 16.5345C17.7917 16.4158 17.7468 16.4134 15.2988 16.3864C12.8925 16.3598 12.8019 16.3552 12.5397 16.2454C11.2744 15.7155 10.883 13.9661 11.7863 12.8781C11.9596 12.6694 12.1475 12.5103 12.3563 12.3957L12.6678 12.2246L14.7696 12.2094L16.8714 12.1943V11.4111V10.6278L14.7707 10.6307C12.8739 10.6333 12.6374 10.6431 12.3349 10.7315ZM3.4889 11.5928C1.84352 11.9771 0.619362 13.2378 0.130535 15.0516C0.0197941 15.4624 0.003129 15.6166 0.000265424 16.2557C-0.00250427 16.8633 0.0153344 17.0647 0.104528 17.4336C0.511673 19.1174 1.63851 21.0033 3.49759 23.1119L4.28057 24L4.60237 23.6678C5.96562 22.2608 7.38009 20.244 8.00181 18.8209C8.4836 17.7181 8.63922 16.9916 8.59556 16.0486C8.50115 14.0092 7.2677 12.2874 5.47801 11.6965C4.96571 11.5274 3.98721 11.4764 3.4889 11.5928ZM5.0136 13.1918C5.5519 13.3453 5.90271 13.5742 6.33694 14.055C6.62349 14.3723 6.75892 14.5723 6.88802 14.8684C7.35985 15.9507 7.30446 16.9123 6.69372 18.2409C6.27883 19.1435 5.41196 20.4667 4.59889 21.4386L4.2923 21.805L4.05505 21.5171C2.62974 19.7875 1.68926 18.129 1.44511 16.9146C1.35643 16.4735 1.37737 15.8496 1.49505 15.4271C1.80221 14.324 2.63593 13.4356 3.61035 13.1729C4.02082 13.0622 4.58603 13.0698 5.0136 13.1918ZM3.98534 14.8093C2.91788 15.1204 2.54608 16.5793 3.31911 17.4232C3.60842 17.739 3.91332 17.877 4.31394 17.8734C4.86314 17.8684 5.31296 17.548 5.56157 16.9846C5.71456 16.638 5.71991 16.055 5.57345 15.6982C5.44736 15.391 5.13912 15.0445 4.87689 14.9152C4.64739 14.8019 4.19494 14.7482 3.98534 14.8093Z" fill="#969696"/>
</svg>
