<svg width="24" height="24" viewBox="0 0 24 24" fill="none" xmlns="http://www.w3.org/2000/svg">
<path d="M12.25 16.2858C12.25 16.405 12.2077 16.5013 12.154 16.5627C12.1012 16.623 12.0456 16.643 12 16.643C11.9544 16.643 11.8988 16.623 11.846 16.5627C11.7923 16.5013 11.75 16.405 11.75 16.2858C11.75 16.1667 11.7923 16.0703 11.846 16.009C11.8988 15.9487 11.9544 15.9287 12 15.9287C12.0456 15.9287 12.1012 15.9487 12.154 16.009C12.2077 16.0703 12.25 16.1667 12.25 16.2858Z" fill="#969696" stroke="#969696"/>
<path d="M21 14.5714V11.1429H19.5V12.8572H4.5V11.1429H3V14.5714H8.25V18.3531L5.25 20.2602V23.9999H6.75V21.2673L9.195 19.7142H14.8057L17.25 21.2682V23.9999H18.75V20.2602L15.75 18.3531V14.5714H21ZM14.25 18H9.75V14.5714H14.25V18ZM0 7.71437H7.5V9.42864H0V7.71437ZM16.5 7.71437H24V9.42864H16.5V7.71437ZM12 3.42871C11.4091 3.42847 10.8241 3.5616 10.2783 3.82049C9.73262 4.07937 9.23702 4.45889 8.82 4.93726L9.87975 6.14839C10.158 5.82978 10.4885 5.577 10.8523 5.40453C11.2161 5.23206 11.6061 5.14329 12 5.14329C12.3939 5.14329 12.7839 5.23206 13.1477 5.40453C13.5115 5.577 13.842 5.82978 14.1202 6.14839L15.1807 4.93641C14.7636 4.45805 14.2679 4.0786 13.722 3.81986C13.1762 3.56112 12.5909 3.42819 12 3.42871V3.42871Z" fill="#969696"/>
<path d="M6.69873 2.51354L7.75923 3.72553C8.3157 3.0883 8.97667 2.58275 9.70431 2.23781C10.432 1.89287 11.212 1.71532 11.9997 1.71532C12.7875 1.71532 13.5675 1.89287 14.2951 2.23781C15.0228 2.58275 15.6838 3.0883 16.2402 3.72553L17.3007 2.51354C16.6052 1.71677 15.7789 1.08464 14.8693 0.653324C13.9597 0.222012 12.9845 0 11.9997 0C11.0149 0 10.0398 0.222012 9.13015 0.653324C8.22053 1.08464 7.39428 1.71677 6.69873 2.51354V2.51354Z" fill="#969696"/>
</svg>
