<svg width="922" height="235" viewBox="0 0 922 235" fill="none" xmlns="http://www.w3.org/2000/svg">
<path d="M341.747 191.726C353.726 191.726 362.817 191.084 369.021 189.801V146.804C366.882 146.163 363.78 145.521 359.716 144.879C355.651 144.237 351.159 143.917 346.239 143.917C341.961 143.917 337.576 144.237 333.083 144.879C328.805 145.521 324.848 146.697 321.211 148.409C317.789 150.12 315.008 152.58 312.869 155.789C310.73 158.783 309.66 162.634 309.66 167.34C309.66 176.538 312.548 182.956 318.323 186.592C324.099 190.015 331.907 191.726 341.747 191.726ZM338.538 47.0139C351.373 47.0139 362.176 48.6182 370.946 51.8269C379.717 55.0356 386.669 59.5278 391.803 65.3035C397.15 71.0791 400.894 78.1382 403.033 86.4809C405.386 94.6095 406.563 103.594 406.563 113.434V215.15C400.573 216.433 391.482 217.93 379.289 219.642C367.31 221.567 353.726 222.53 338.538 222.53C328.484 222.53 319.286 221.567 310.943 219.642C302.601 217.717 295.435 214.615 289.445 210.337C283.67 206.058 279.07 200.497 275.648 193.651C272.439 186.806 270.835 178.357 270.835 168.303C270.835 158.677 272.653 150.548 276.29 143.917C280.14 137.285 285.274 131.937 291.691 127.873C298.109 123.595 305.489 120.6 313.831 118.889C322.388 116.963 331.265 116.001 340.463 116.001C344.742 116.001 349.234 116.322 353.94 116.963C358.646 117.391 363.673 118.247 369.021 119.53V113.113C369.021 108.621 368.486 104.343 367.417 100.278C366.347 96.2139 364.422 92.6843 361.641 89.6895C359.074 86.4809 355.544 84.0208 351.052 82.3095C346.774 80.5982 341.319 79.7426 334.688 79.7426C325.703 79.7426 317.468 80.3843 309.981 81.6678C302.494 82.9513 296.397 84.4487 291.691 86.16L286.878 54.7148C291.798 53.0035 298.964 51.2922 308.377 49.5809C317.789 47.8695 327.843 47.0139 338.538 47.0139Z" fill="url(#paint0_linear_1_9)"/>
<path d="M479.458 191.084C489.725 191.084 497.212 189.908 501.919 187.555C506.625 184.988 508.978 180.71 508.978 174.72C508.978 169.158 506.411 164.559 501.277 160.923C496.357 157.286 488.121 153.329 476.57 149.05C469.511 146.483 462.986 143.81 456.997 141.029C451.221 138.034 446.194 134.611 441.916 130.761C437.638 126.91 434.215 122.311 431.648 116.963C429.295 111.402 428.119 104.663 428.119 96.7487C428.119 81.3469 433.787 69.2608 445.125 60.4904C456.462 51.5061 471.864 47.0139 491.33 47.0139C501.17 47.0139 510.582 47.9765 519.566 49.9017C528.551 51.613 535.289 53.3243 539.781 55.0356L532.722 86.4809C528.444 84.5556 522.989 82.8443 516.358 81.3469C509.726 79.6356 502.025 78.78 493.255 78.78C485.34 78.78 478.923 80.1704 474.003 82.9513C469.083 85.5182 466.623 89.5826 466.623 95.1443C466.623 97.9252 467.051 100.385 467.906 102.524C468.976 104.663 470.687 106.696 473.04 108.621C475.393 110.332 478.495 112.15 482.345 114.076C486.196 115.787 490.902 117.605 496.464 119.53C505.662 122.953 513.47 126.376 519.887 129.798C526.305 133.007 531.545 136.75 535.61 141.029C539.888 145.093 542.99 149.799 544.915 155.147C546.84 160.495 547.803 166.912 547.803 174.399C547.803 190.443 541.813 202.636 529.834 210.978C518.069 219.107 501.17 223.171 479.137 223.171C464.377 223.171 452.505 221.888 443.52 219.321C434.536 216.968 428.225 215.043 424.589 213.545L431.327 181.137C437.103 183.49 443.948 185.737 451.863 187.876C459.992 190.015 469.19 191.084 479.458 191.084Z" fill="url(#paint1_linear_1_9)"/>
<path d="M565.461 6.9052L604.286 0.487793V51.1852H663.968V83.593H604.286V151.938C604.286 165.415 606.425 175.041 610.703 180.817C614.982 186.592 622.255 189.48 632.522 189.48C639.582 189.48 645.785 188.731 651.133 187.234C656.695 185.737 661.08 184.346 664.289 183.063L670.706 213.866C666.214 215.791 660.331 217.717 653.058 219.642C645.785 221.781 637.229 222.85 627.389 222.85C615.409 222.85 605.356 221.246 597.227 218.037C589.312 214.829 583.002 210.23 578.296 204.24C573.589 198.037 570.274 190.657 568.349 182.1C566.423 173.33 565.461 163.383 565.461 152.259V6.9052Z" fill="url(#paint2_linear_1_9)"/>
<path d="M780.433 86.16C777.225 85.0904 772.732 84.0208 766.957 82.9513C761.395 81.6678 754.871 81.0261 747.384 81.0261C743.105 81.0261 738.506 81.4539 733.586 82.3095C728.88 83.1652 725.565 83.9139 723.639 84.5556V219H684.814V59.2069C692.301 56.4261 701.606 53.8591 712.73 51.5061C724.067 48.9391 736.581 47.6556 750.272 47.6556C752.839 47.6556 755.833 47.8695 759.256 48.2974C762.678 48.5113 766.101 48.9391 769.524 49.5809C772.946 50.0087 776.262 50.6504 779.471 51.5061C782.679 52.1478 785.246 52.7895 787.172 53.4313L780.433 86.16Z" fill="url(#paint3_linear_1_9)"/>
<path d="M856.582 191.726C868.561 191.726 877.653 191.084 883.856 189.801V146.804C881.717 146.163 878.615 145.521 874.551 144.879C870.486 144.237 865.994 143.917 861.074 143.917C856.796 143.917 852.411 144.237 847.919 144.879C843.64 145.521 839.683 146.697 836.047 148.409C832.624 150.12 829.843 152.58 827.704 155.789C825.565 158.783 824.495 162.634 824.495 167.34C824.495 176.538 827.383 182.956 833.159 186.592C838.934 190.015 846.742 191.726 856.582 191.726ZM853.373 47.0139C866.208 47.0139 877.011 48.6182 885.781 51.8269C894.552 55.0356 901.504 59.5278 906.638 65.3035C911.986 71.0791 915.729 78.1382 917.868 86.4809C920.221 94.6095 921.398 103.594 921.398 113.434V215.15C915.408 216.433 906.317 217.93 894.124 219.642C882.145 221.567 868.561 222.53 853.373 222.53C843.32 222.53 834.121 221.567 825.779 219.642C817.436 217.717 810.27 214.615 804.28 210.337C798.505 206.058 793.906 200.497 790.483 193.651C787.274 186.806 785.67 178.357 785.67 168.303C785.67 158.677 787.488 150.548 791.125 143.917C794.975 137.285 800.109 131.937 806.526 127.873C812.944 123.595 820.324 120.6 828.667 118.889C837.223 116.963 846.1 116.001 855.299 116.001C859.577 116.001 864.069 116.322 868.775 116.963C873.481 117.391 878.508 118.247 883.856 119.53V113.113C883.856 108.621 883.321 104.343 882.252 100.278C881.182 96.2139 879.257 92.6843 876.476 89.6895C873.909 86.4809 870.38 84.0208 865.887 82.3095C861.609 80.5982 856.154 79.7426 849.523 79.7426C840.539 79.7426 832.303 80.3843 824.816 81.6678C817.329 82.9513 811.233 84.4487 806.526 86.16L801.713 54.7148C806.633 53.0035 813.8 51.2922 823.212 49.5809C832.624 47.8695 842.678 47.0139 853.373 47.0139Z" fill="url(#paint4_linear_1_9)"/>
<path d="M106.5 235C47.6823 235 0 188.46 0 132.526C0 76.5919 55.8197 46.1552 106.186 85.5574C82.6017 85.7287 63.5288 104.887 63.5288 128.5C63.5288 152.113 82.7731 171.471 106.5 171.471C130.227 171.471 149.471 153.112 149.471 124.474C149.471 79.9326 102.817 39.3312 37.118 47.7542C55.7626 31.7078 79.9749 22 106.5 22C165.318 22 213 69.6823 213 128.5C213 187.318 165.318 235 106.5 235Z" fill="url(#paint5_linear_1_9)"/>
<defs>
<linearGradient id="paint0_linear_1_9" x1="920.5" y1="135" x2="275" y2="135" gradientUnits="userSpaceOnUse">
<stop stop-color="#FD334D"/>
<stop offset="1" stop-color="#FD5B16"/>
</linearGradient>
<linearGradient id="paint1_linear_1_9" x1="920.5" y1="135" x2="275" y2="135" gradientUnits="userSpaceOnUse">
<stop stop-color="#FD334D"/>
<stop offset="1" stop-color="#FD5B16"/>
</linearGradient>
<linearGradient id="paint2_linear_1_9" x1="920.5" y1="135" x2="275" y2="135" gradientUnits="userSpaceOnUse">
<stop stop-color="#FD334D"/>
<stop offset="1" stop-color="#FD5B16"/>
</linearGradient>
<linearGradient id="paint3_linear_1_9" x1="920.5" y1="135" x2="275" y2="135" gradientUnits="userSpaceOnUse">
<stop stop-color="#FD334D"/>
<stop offset="1" stop-color="#FD5B16"/>
</linearGradient>
<linearGradient id="paint4_linear_1_9" x1="920.5" y1="135" x2="275" y2="135" gradientUnits="userSpaceOnUse">
<stop stop-color="#FD334D"/>
<stop offset="1" stop-color="#FD5B16"/>
</linearGradient>
<linearGradient id="paint5_linear_1_9" x1="106.5" y1="22.7303" x2="106.5" y2="235" gradientUnits="userSpaceOnUse">
<stop stop-color="#FD713A"/>
<stop offset="1" stop-color="#FD3D3F"/>
</linearGradient>
</defs>
</svg>
