<svg width="921" height="235" viewBox="0 0 921 235" fill="none" xmlns="http://www.w3.org/2000/svg">
<path fill-rule="evenodd" clip-rule="evenodd" d="M83.1253 24.8152C68.0363 28.3312 50.8673 36.4652 40.3293 45.0892L37.5203 47.3892L51.0753 47.0852C72.9993 46.5932 91.0283 50.7362 107.182 59.9792C126.236 70.8812 138.674 85.3852 145.267 104.389C147.715 111.445 148.039 113.804 148.007 124.389C147.966 138.07 146.365 143.944 140.106 153.373C131.458 166.402 114.668 173.693 99.4753 171.017C75.4853 166.791 59.4773 144.953 63.4383 121.854C66.6083 103.371 81.5823 88.3312 99.0063 86.1302L104.872 85.3892L100.506 82.2692C94.5743 78.0312 85.3533 73.4862 77.0413 70.7032C71.3233 68.7892 68.0803 68.3982 58.1393 68.4272C43.9253 68.4672 37.1403 70.4162 26.4173 77.5402C-11.0907 102.458 -8.17968 168.023 32.1063 205.71C57.3943 229.365 93.6193 239.558 127.232 232.477C194.151 218.379 230.489 145.079 201.205 83.2602C187.885 55.1412 164.421 35.1982 134.139 26.2602C126.26 23.9352 122.883 22.787 108 22.5C94.087 22.231 89.6843 23.2862 83.1253 24.8152Z" fill="white"/>
<path d="M340.747 191.726C352.726 191.726 361.817 191.084 368.021 189.801V146.804C365.882 146.163 362.78 145.521 358.716 144.879C354.651 144.237 350.159 143.917 345.239 143.917C340.961 143.917 336.576 144.237 332.083 144.879C327.805 145.521 323.848 146.697 320.211 148.409C316.789 150.12 314.008 152.58 311.869 155.789C309.73 158.783 308.66 162.634 308.66 167.34C308.66 176.538 311.548 182.956 317.323 186.592C323.099 190.015 330.907 191.726 340.747 191.726ZM337.538 47.0139C350.373 47.0139 361.176 48.6183 369.946 51.8269C378.716 55.0356 385.669 59.5278 390.803 65.3035C396.15 71.0791 399.894 78.1383 402.033 86.4809C404.386 94.6096 405.563 103.594 405.563 113.434V215.15C399.573 216.433 390.482 217.93 378.289 219.642C366.31 221.567 352.726 222.53 337.538 222.53C327.484 222.53 318.286 221.567 309.943 219.642C301.601 217.717 294.435 214.615 288.445 210.337C282.669 206.058 278.07 200.497 274.648 193.651C271.439 186.806 269.835 178.357 269.835 168.303C269.835 158.677 271.653 150.548 275.289 143.917C279.14 137.285 284.274 131.937 290.691 127.873C297.109 123.595 304.489 120.6 312.831 118.889C321.388 116.963 330.265 116.001 339.463 116.001C343.742 116.001 348.234 116.322 352.94 116.963C357.646 117.391 362.673 118.247 368.021 119.53V113.113C368.021 108.621 367.486 104.343 366.416 100.278C365.347 96.2139 363.422 92.6843 360.641 89.6896C358.074 86.4809 354.544 84.0209 350.052 82.3096C345.774 80.5983 340.319 79.7426 333.688 79.7426C324.703 79.7426 316.468 80.3843 308.981 81.6678C301.494 82.9513 295.397 84.4487 290.691 86.16L285.878 54.7148C290.798 53.0035 297.964 51.2922 307.376 49.5809C316.789 47.8696 326.843 47.0139 337.538 47.0139Z" fill="white"/>
<path d="M478.458 191.084C488.725 191.084 496.212 189.908 500.918 187.555C505.625 184.988 507.978 180.71 507.978 174.72C507.978 169.158 505.411 164.559 500.277 160.923C495.357 157.286 487.121 153.329 475.57 149.05C468.511 146.483 461.986 143.81 455.997 141.029C450.221 138.034 445.194 134.611 440.916 130.761C436.638 126.91 433.215 122.311 430.648 116.963C428.295 111.402 427.118 104.663 427.118 96.7487C427.118 81.347 432.787 69.2609 444.125 60.4904C455.462 51.5061 470.864 47.0139 490.33 47.0139C500.17 47.0139 509.582 47.9765 518.566 49.9017C527.551 51.613 534.289 53.3243 538.781 55.0356L531.722 86.4809C527.444 84.5556 521.989 82.8443 515.358 81.3469C508.726 79.6356 501.025 78.78 492.255 78.78C484.34 78.78 477.923 80.1704 473.003 82.9513C468.083 85.5182 465.623 89.5826 465.623 95.1443C465.623 97.9252 466.051 100.385 466.906 102.524C467.976 104.663 469.687 106.696 472.04 108.621C474.393 110.332 477.495 112.15 481.345 114.076C485.196 115.787 489.902 117.605 495.464 119.53C504.662 122.953 512.47 126.376 518.887 129.798C525.305 133.007 530.545 136.75 534.61 141.029C538.888 145.093 541.99 149.799 543.915 155.147C545.84 160.495 546.803 166.912 546.803 174.399C546.803 190.443 540.813 202.636 528.834 210.978C517.069 219.107 500.17 223.171 478.137 223.171C463.377 223.171 451.505 221.888 442.52 219.321C433.536 216.968 427.225 215.043 423.589 213.545L430.327 181.137C436.103 183.49 442.948 185.737 450.863 187.876C458.992 190.015 468.19 191.084 478.458 191.084Z" fill="white"/>
<path d="M564.461 6.90521L603.286 0.487808V51.1852H662.968V83.593H603.286V151.938C603.286 165.415 605.425 175.041 609.703 180.817C613.982 186.592 621.255 189.48 631.522 189.48C638.582 189.48 644.785 188.731 650.133 187.234C655.695 185.737 660.08 184.346 663.288 183.063L669.706 213.866C665.214 215.791 659.331 217.717 652.058 219.642C644.785 221.781 636.228 222.85 626.388 222.85C614.409 222.85 604.355 221.246 596.227 218.037C588.312 214.829 582.002 210.23 577.295 204.24C572.589 198.037 569.274 190.657 567.348 182.1C565.423 173.33 564.461 163.383 564.461 152.259V6.90521Z" fill="white"/>
<path d="M779.433 86.16C776.225 85.0904 771.732 84.0209 765.957 82.9513C760.395 81.6678 753.871 81.0261 746.384 81.0261C742.105 81.0261 737.506 81.4539 732.586 82.3096C727.88 83.1652 724.565 83.9139 722.639 84.5556V219H683.814V59.2069C691.301 56.4261 700.606 53.8591 711.73 51.5061C723.067 48.9391 735.581 47.6556 749.271 47.6556C751.838 47.6556 754.833 47.8696 758.256 48.2974C761.678 48.5113 765.101 48.9391 768.524 49.5809C771.946 50.0087 775.262 50.6504 778.471 51.5061C781.679 52.1478 784.246 52.7895 786.172 53.4313L779.433 86.16Z" fill="white"/>
<path d="M855.582 191.726C867.561 191.726 876.653 191.084 882.856 189.801V146.804C880.717 146.163 877.615 145.521 873.551 144.879C869.486 144.237 864.994 143.917 860.074 143.917C855.796 143.917 851.411 144.237 846.919 144.879C842.64 145.521 838.683 146.697 835.046 148.409C831.624 150.12 828.843 152.58 826.704 155.789C824.565 158.783 823.495 162.634 823.495 167.34C823.495 176.538 826.383 182.956 832.159 186.592C837.934 190.015 845.742 191.726 855.582 191.726ZM852.373 47.0139C865.208 47.0139 876.011 48.6183 884.781 51.8269C893.552 55.0356 900.504 59.5278 905.638 65.3035C910.986 71.0791 914.729 78.1383 916.868 86.4809C919.221 94.6096 920.398 103.594 920.398 113.434V215.15C914.408 216.433 905.317 217.93 893.124 219.642C881.145 221.567 867.561 222.53 852.373 222.53C842.319 222.53 833.121 221.567 824.779 219.642C816.436 217.717 809.27 214.615 803.28 210.337C797.505 206.058 792.906 200.497 789.483 193.651C786.274 186.806 784.67 178.357 784.67 168.303C784.67 158.677 786.488 150.548 790.125 143.917C793.975 137.285 799.109 131.937 805.526 127.873C811.944 123.595 819.324 120.6 827.666 118.889C836.223 116.963 845.1 116.001 854.299 116.001C858.577 116.001 863.069 116.322 867.775 116.963C872.481 117.391 877.508 118.247 882.856 119.53V113.113C882.856 108.621 882.321 104.343 881.252 100.278C880.182 96.2139 878.257 92.6843 875.476 89.6896C872.909 86.4809 869.38 84.0209 864.887 82.3096C860.609 80.5983 855.154 79.7426 848.523 79.7426C839.539 79.7426 831.303 80.3843 823.816 81.6678C816.329 82.9513 810.233 84.4487 805.526 86.16L800.713 54.7148C805.633 53.0035 812.799 51.2922 822.212 49.5809C831.624 47.8696 841.678 47.0139 852.373 47.0139Z" fill="white"/>
</svg>
