<svg width="24" height="24" viewBox="0 0 24 24" fill="none" xmlns="http://www.w3.org/2000/svg">
<path d="M21.6463 4.95329C21.7441 4.88859 21.8573 4.85082 21.9743 4.84379C22.0914 4.83677 22.2082 4.86074 22.313 4.91329C22.4205 4.97051 22.5102 5.05605 22.5725 5.16065C22.6348 5.26524 22.6672 5.38489 22.6663 5.50663V20.6666C22.6663 20.8434 22.5961 21.013 22.4711 21.138C22.3461 21.2631 22.1765 21.3333 21.9997 21.3333H1.99967C1.82286 21.3333 1.65329 21.2631 1.52827 21.138C1.40325 21.013 1.33301 20.8434 1.33301 20.6666V9.99996C1.33301 9.82315 1.40325 9.65358 1.52827 9.52856C1.65329 9.40353 1.82286 9.33329 1.99967 9.33329H2.16634L6.66634 8.83329V9.33329H7.16634H8.98634L14.2397 4.99329C14.3371 4.91215 14.4556 4.86047 14.5814 4.84431C14.7072 4.82816 14.8349 4.8482 14.9497 4.90208C15.0644 4.95597 15.1615 5.04146 15.2294 5.14854C15.2973 5.25562 15.3332 5.37984 15.333 5.50663V8.57825L15.0548 8.76448L15.333 9.17996H15.833V8.84522L21.6463 4.95329ZM21.6463 4.95329L21.9245 5.36878L21.923 5.36978C21.9473 5.3539 21.9753 5.34463 22.0042 5.34289C22.0315 5.34126 22.0586 5.34633 22.0834 5.35762C22.1079 5.37184 22.1284 5.39208 22.1429 5.41647C22.1585 5.44262 22.1666 5.47253 22.1663 5.50297V5.50663V20.6666C22.1663 20.7108 22.1488 20.7532 22.1175 20.7845C22.0863 20.8157 22.0439 20.8333 21.9997 20.8333H1.99967C1.95547 20.8333 1.91308 20.8157 1.88182 20.7845C1.85057 20.7532 1.83301 20.7108 1.83301 20.6666V9.99996C1.83301 9.95576 1.85057 9.91337 1.88182 9.88211C1.91308 9.85085 1.95547 9.83329 1.99967 9.83329H2.66634H3.16634V9.33329V2.48663V2.47838L3.16607 2.47015C3.16522 2.44441 3.17035 2.41883 3.18105 2.3954L2.73196 2.19026L3.18105 2.3954C3.19175 2.37198 3.20773 2.35135 3.22774 2.33515L3.22774 2.33515L3.22854 2.3345C3.24809 2.31859 3.271 2.30732 3.29554 2.30155C3.32006 2.29578 3.34556 2.29564 3.37014 2.30115C3.37016 2.30115 3.37018 2.30116 3.3702 2.30116L6.03649 2.90108C6.03652 2.90108 6.03655 2.90109 6.03659 2.9011C6.07414 2.90958 6.10761 2.9308 6.13129 2.96117C6.15499 2.99155 6.16743 3.02922 6.16649 3.06774L6.16634 3.06774V3.07996V9.33329V9.83329H6.66634H8.98634H9.16616L9.30479 9.71876L14.5581 5.37877L14.5597 5.37748C14.584 5.35719 14.6137 5.34427 14.6451 5.34024C14.6765 5.3362 14.7085 5.34121 14.7372 5.35468C14.7659 5.36815 14.7901 5.38952 14.8071 5.41629C14.8241 5.44306 14.8331 5.47412 14.833 5.50581V5.50663V9.17996V10.1164L15.6112 9.59545L21.9223 5.37027L21.6463 4.95329ZM4.10711 2.84497L3.49967 2.71134V3.33329V9.33329V9.83329H3.99967H5.33301H5.83301V9.33329V3.62663V3.22467L5.44044 3.13831L4.10711 2.84497ZM21.333 20.5H21.833V20V6.75996V5.82186L21.0542 6.34489L14.7609 10.5716L14.7597 10.5724C14.7346 10.5893 14.7054 10.5991 14.6751 10.6007C14.6449 10.6023 14.6148 10.5957 14.5881 10.5814C14.5613 10.5672 14.539 10.546 14.5234 10.52C14.5078 10.494 14.4996 10.4643 14.4997 10.434V10.4333V6.91329V5.851L13.681 6.52798L9.3277 10.128L9.32732 10.1283C9.29733 10.1531 9.25959 10.1667 9.22065 10.1666H9.21967H2.66634H2.16634V10.6666V20V20.5H2.66634H21.333Z" fill="#969696" stroke="#969696"/>
<path d="M4.5 12.4934H8.83333V12.8267H4.5V12.4934ZM4.5 15.1601H8.83333V15.4934H4.5V15.1601ZM4.5 17.8267H8.83333V18.1601H4.5V17.8267ZM13.1667 13.1601H13.5V14.1601H13.1667V13.1601ZM13.1667 17.1601H13.5V18.1601H13.1667V17.1601ZM15.8333 13.1601H16.1667V14.1601H15.8333V13.1601ZM15.8333 17.1601H16.1667V18.1601H15.8333V17.1601ZM18.5 13.1601H18.8333V14.1601H18.5V13.1601ZM18.5 17.1601H18.8333V18.1601H18.5V17.1601Z" fill="#969696" stroke="#969696"/>
</svg>
