<svg width="24" height="16" viewBox="0 0 24 16" fill="none" xmlns="http://www.w3.org/2000/svg">
<path d="M12 4.50524C12.6129 4.50524 13.2198 4.62596 13.7861 4.86051C14.3523 5.09506 14.8668 5.43885 15.3002 5.87224C15.7336 6.30564 16.0774 6.82015 16.312 7.38641C16.5465 7.95266 16.6672 8.55958 16.6672 9.17249C16.6672 9.7854 16.5465 10.3923 16.312 10.9586C16.0774 11.5248 15.7336 12.0393 15.3002 12.4727C14.8668 12.9061 14.3523 13.2499 13.7861 13.4845C13.2198 13.719 12.6129 13.8397 12 13.8397C10.7622 13.8397 9.57502 13.348 8.69974 12.4727C7.82446 11.5975 7.33273 10.4103 7.33273 9.17249C7.33273 7.93466 7.82446 6.74752 8.69974 5.87224C9.57502 4.99696 10.7622 4.50524 12 4.50524ZM12 6.25524C11.2263 6.25524 10.4843 6.56259 9.93718 7.10968C9.39009 7.65677 9.08274 8.39878 9.08274 9.17249C9.08274 9.94619 9.39009 10.6882 9.93718 11.2353C10.4843 11.7824 11.2263 12.0897 12 12.0897C12.7737 12.0897 13.5157 11.7824 14.0628 11.2353C14.6099 10.6882 14.9172 9.94619 14.9172 9.17249C14.9172 8.39878 14.6099 7.65677 14.0628 7.10968C13.5157 6.56259 12.7737 6.25524 12 6.25524ZM12 0.417236C17.383 0.417236 22.0275 4.09224 23.3172 9.24249C23.3481 9.35495 23.3561 9.47244 23.3409 9.58805C23.3257 9.70367 23.2875 9.81507 23.2286 9.91573C23.1698 10.0164 23.0913 10.1042 22.998 10.1742C22.9047 10.2441 22.7983 10.2946 22.6852 10.3229C22.5721 10.3511 22.4544 10.3564 22.3392 10.3385C22.2239 10.3207 22.1134 10.2799 22.0142 10.2187C21.9149 10.1575 21.8289 10.0771 21.7612 9.98218C21.6934 9.88726 21.6453 9.77975 21.6197 9.66599C21.0782 7.52447 19.8376 5.62486 18.0945 4.26812C16.3513 2.91138 14.2053 2.17509 11.9964 2.17589C9.78746 2.17669 7.64197 2.91455 5.8998 4.27256C4.15764 5.63056 2.91842 7.53107 2.37848 9.67299C2.32076 9.89664 2.17694 10.0884 1.97839 10.2064C1.77984 10.3245 1.54268 10.3592 1.31862 10.3031C1.09456 10.2469 0.901789 10.1045 0.782339 9.9068C0.662889 9.7091 0.626456 9.47219 0.680984 9.24774C1.31395 6.72504 2.77146 4.48606 4.82212 2.88624C6.87278 1.28641 9.39909 0.41743 12 0.417236Z" fill="#FFBF38"/>
</svg>
