<svg width="16" height="16" viewBox="0 0 16 16" fill="none" xmlns="http://www.w3.org/2000/svg">
<path d="M1.93369 5.17309L2.52036 4.15695C2.86702 3.55651 3.64444 3.34332 4.25066 3.69332C5.29566 4.29665 6.14956 3.80431 6.14751 2.59453C6.14729 1.90159 6.7163 1.32942 7.41496 1.33253L8.74383 1.33762C9.35656 1.3296 9.85216 1.83126 9.86016 2.44403L9.86036 2.59039C9.85663 3.79683 10.7111 4.29017 11.7598 3.68706L11.8866 3.61403C12.4214 3.31459 13.1036 3.49293 13.403 4.02762L14.0718 5.17587C14.4239 5.77942 14.2129 6.55825 13.6126 6.90453C12.5639 7.50767 12.5645 8.49333 13.6095 9.09667C14.21 9.44333 14.4232 10.2207 14.0732 10.8269L13.4865 11.8431C13.1398 12.4435 12.3624 12.6567 11.7562 12.3067C10.7112 11.7034 9.85723 12.1957 9.8593 13.4055C9.85623 14.1042 9.29056 14.6706 8.59183 14.6675L7.26303 14.6624C6.65025 14.6705 6.15468 14.1688 6.14666 13.556L6.14648 13.4097C6.1502 12.2032 5.29572 11.7099 4.247 12.313L4.12016 12.386C3.58548 12.6855 2.90324 12.5071 2.6038 11.9724L1.93499 10.8242C1.58293 10.2206 1.79396 9.4418 2.39418 9.09547C3.4429 8.4924 3.44232 7.50673 2.39732 6.9034C1.7911 6.55339 1.58702 5.77353 1.93369 5.17309Z" stroke="#969696" stroke-miterlimit="10" stroke-linecap="round" stroke-linejoin="round"/>
<path d="M10.1668 7.99998C10.1668 6.80336 9.19678 5.83331 8.00016 5.83331C6.80355 5.83331 5.8335 6.80336 5.8335 7.99998C5.8335 9.1966 6.80355 10.1666 8.00016 10.1666C9.19678 10.1666 10.1668 9.1966 10.1668 7.99998Z" stroke="#969696"/>
</svg>
